# xmcd
#
# Track frame offsets:
# 150
# 13282
# 32047
# 48917
# 62530
# 78230
# 90842
# 106242
# 120585
# 135540
# 150270
# 165472
# 179437
#
# Disc length: 2575 seconds
#
#
# Revision: 0
# Processed by: cddbd v1.5.2PL0 Copyright (c) Steve Scherf et al.
# Submitted via: FreeRIP 2.96 
#
DISCID=8f0a0d0d
DTITLE=Servio Vega  - Necesito Dueña
DYEAR=2006
DGENRE=Country
TTITLE0=Amor De Mi Alma
TTITLE1=Mentiras
TTITLE2=Tu
TTITLE3=NecesitoDueña
TTITLE4=Te Quiero Enamorar
TTITLE5=Tu Condena
TTITLE6=Muñequita
TTITLE7=La Maestra
TTITLE8=Dora Julia
TTITLE9=Quisiera Gritar
TTITLE10=El Marcapasos
TTITLE11=El Papa Del Diablo
TTITLE12=Tres Figuras Grandes
EXTD=
EXTT0=
EXTT1=
EXTT2=
EXTT3=
EXTT4=
EXTT5=
EXTT6=
EXTT7=
EXTT8=
EXTT9=
EXTT10=
EXTT11=
EXTT12=
PLAYORDER=
